<?xml version="1.0" encoding="utf-8"?>
<!-- Generator: Adobe Illustrator 25.2.0, SVG Export Plug-In . SVG Version: 6.00 Build 0)  -->
<svg version="1.1" id="Layer_1" xmlns="http://www.w3.org/2000/svg" xmlns:xlink="http://www.w3.org/1999/xlink" x="0px" y="0px"
	 viewBox="0 0 1920 1080" style="enable-background:new 0 0 1920 1080;" xml:space="preserve">
<style type="text/css">
	.st0{stroke:#000000;stroke-miterlimit:10;}
	.st1{fill:#247083;}
	.st2{fill:#2C89A0;}
	.st3{fill:#37ABC8;}
	.st4{fill:#247083;stroke:#247083;stroke-miterlimit:10;}
	.st5{fill:#2C2E2D;}
	.st6{fill:#050505;stroke:#000000;stroke-miterlimit:10;}
	.st7{fill:#2C2E2D;stroke:#000000;stroke-miterlimit:10;}
	.st8{fill:#277C90;}
	.st9{fill:#277C90;stroke:#277C90;stroke-miterlimit:10;}
</style>
<g>
	<path class="st0" d="M966.75,90C720.85,90,521.5,288.23,521.5,532.75S720.85,975.5,966.75,975.5S1412,777.27,1412,532.75
		S1212.65,90,966.75,90z M1252.72,550.93c0,7.04-5.56,12.74-12.43,12.74h-17.38c-0.53,0-1.05-0.05-1.57-0.11v176.97h-182.2v85.33
		h-74.81h-76.02v-85.33H703.7V563.65c-0.12,0-0.24,0.02-0.36,0.02h-17.38c-6.86,0-12.43-5.7-12.43-12.74V449.02
		c0-7.04,5.56-12.74,12.43-12.74h17.38c0.12,0,0.24,0.02,0.36,0.02v-48.25h241.33v-107.6h0.77c-22.16-6.49-38.17-25.07-38.17-47
		c0-27.32,24.85-49.47,55.51-49.47s55.51,22.15,55.51,49.47c0,22.07-16.22,40.76-38.61,47.13v107.46h241.33v48.34
		c0.51-0.07,1.04-0.11,1.57-0.11h17.38c6.86,0,12.43,5.7,12.43,12.74V550.93z"/>
	<polygon class="st1" points="964.34,825.86 1039.15,825.86 1039.15,740.52 964.15,740.52 	"/>
	<polygon class="st2" points="888.32,740.52 888.32,825.86 964.34,825.86 964.15,740.52 	"/>
	<path class="st2" d="M963.13,282.93c-6.05,0-11.88-0.88-17.33-2.47h-0.77v107.6h18.33L963.13,282.93z"/>
	<path class="st1" d="M963.36,388.05h16.66V280.59c-5.33,1.52-11,2.34-16.89,2.34L963.36,388.05z"/>
	<path class="st1" d="M980.02,280.59c22.39-6.37,38.61-25.06,38.61-47.13c0-27.32-24.85-49.47-55.51-49.47s-55.51,22.15-55.51,49.47
		c0,21.92,16.01,40.51,38.17,47h34.23V280.59z M946.24,196.36c-7.74,4.67-11.89,11.37-13.27,13.6c-6.89,11.13-6.25,22.77-6.03,25.97
		c0.85,12.43,6.57,20.82,8.45,23.5c5.92,8.43,12.51,11.68,12.07,12.37c-0.57,0.88-12.39-3.11-20.51-13.6
		c-7.56-9.77-8.37-20.59-8.45-24.73c-0.13-7,1.53-12.38,2.41-14.84c3.36-9.37,9.24-14.77,12.07-17.31
		c5.72-5.14,10.65-6.94,12.07-7.42c3.18-1.08,7.05-1.8,7.24-1.24C952.46,193.19,949.12,194.62,946.24,196.36z"/>
	<path class="st1" d="M980.02,280.59v-0.13H945.8c5.46,1.6,11.28,2.47,17.33,2.47C969.02,282.93,974.7,282.11,980.02,280.59z"/>
	<path class="st3" d="M703.34,436.28h-17.38c-6.86,0-12.43,5.7-12.43,12.74v101.91c0,7.04,5.56,12.74,12.43,12.74h17.38
		c0.12,0,0.24-0.02,0.36-0.02V436.3C703.58,436.3,703.46,436.28,703.34,436.28z M697.67,540.79c0,5.12-4.05,9.28-9.05,9.28
		c-5,0-9.05-4.15-9.05-9.28v-84.1c0-5.12,4.05-9.28,9.05-9.28c5,0,9.05,4.15,9.05,9.28V540.79z"/>
	<path class="st3" d="M1240.3,436.28h-17.38c-0.53,0-1.05,0.05-1.57,0.11v127.16c0.51,0.07,1.04,0.11,1.57,0.11h17.38
		c6.86,0,12.43-5.7,12.43-12.74V449.02C1252.72,441.99,1247.16,436.28,1240.3,436.28z M1245.48,540.79c0,5.12-4.05,9.28-9.05,9.28
		s-9.05-4.15-9.05-9.28v-84.1c0-5.12,4.05-9.28,9.05-9.28s9.05,4.15,9.05,9.28V540.79z"/>
	<path class="st1" d="M1210.49,550.93V449.02c0-6.49,4.74-11.83,10.86-12.63v-48.34H980.02h-16.66l0.59,263.42
		c32.71,0,65.42,0,98.13,0c-0.39,4.05-1.47,10.37-4.83,17.31c-3.09,6.39-6.91,10.86-9.65,13.6c-1.76,1.66-4.58,4.04-8.45,6.18
		c-6.63,3.67-12.67,4.57-15.69,4.95c-15.69,1.94-45.22,1.21-59.42,1.23l0.1,45.76h75h182.2V563.56
		C1215.23,562.76,1210.49,557.42,1210.49,550.93z M1126.03,509.25c-0.93,12.89-9.22,21.78-15.69,25.97c0,0-8.78,5.69-22.93,6.18
		c-1.81,0.06-3.62,0-3.62,0c-4.25-0.15-7.41-0.78-9.65-1.24c-3.28-0.67-5.55-1.15-8.45-2.47c0,0-1.26-0.57-2.41-1.24
		c-5.92-3.39-10.13-9.98-10.86-11.13c-2.1-3.34-5.46-8.7-6.03-16.08c-1.23-15.9,11.58-27.03,13.27-28.44
		c1.25-1.05,6.52-5.32,14.48-7.42c5.33-1.41,9.87-1.31,13.27-1.24c2.42,0.05,6.34,0.14,10.86,1.24c2.91,0.71,10.46,2.64,16.89,8.66
		C1121.08,487.58,1126.89,497.36,1126.03,509.25z"/>
	<path class="st2" d="M964.05,694.76c-0.31,0-0.62,0-0.92,0c-4.95,0.02-48.42,0.33-62.75-1.24c-1.75-0.19-5.38-0.66-9.65-2.47
		c-4.1-1.73-7.28-4.06-9.65-6.18c-2.84-1.78-10.43-7.05-14.48-17.31c-2.64-6.69-2.66-12.69-2.41-16.08c33.25,0,66.51,0,99.76,0
		l-0.59-263.42h-18.33H703.7v48.25c6.7,0.2,12.07,5.81,12.07,12.72v101.91c0,6.91-5.37,12.52-12.07,12.72v176.87h184.62h75.83
		L964.05,694.76z M838.85,545.12c-1.81,0.06-3.62,0-3.62,0c-4.25-0.15-7.41-0.78-9.65-1.24c-3.28-0.67-5.55-1.15-8.45-2.47
		c0,0-1.26-0.57-2.41-1.24c-5.92-3.39-10.13-9.98-10.86-11.13c-2.1-3.34-5.46-8.7-6.03-16.08c-1.23-15.9,11.58-27.03,13.27-28.44
		c1.25-1.05,6.52-5.32,14.48-7.42c5.33-1.41,9.87-1.31,13.27-1.24c2.42,0.05,6.34,0.14,10.86,1.24c2.91,0.71,10.46,2.64,16.89,8.66
		c5.92,5.54,11.72,15.31,10.86,27.21c-0.93,12.89-9.22,21.78-15.69,25.97C861.77,538.93,853,544.62,838.85,545.12z"/>
	<path class="st2" d="M715.77,550.93V449.02c0-6.91-5.37-12.52-12.07-12.72v127.35C710.4,563.45,715.77,557.84,715.77,550.93z"/>
	<path class="st4" d="M1210.49,449.02v101.91c0,6.49,4.74,11.83,10.86,12.63V436.4C1215.23,437.19,1210.49,442.53,1210.49,449.02z"
		/>
	<path d="M1035.53,671.88c0,8.35-31.77,15.15-71.5,15.44l0.02,7.43c14.2-0.02,43.73,0.71,59.42-1.23c3.01-0.37,9.05-1.28,15.69-4.95
		c3.87-2.14,6.69-4.53,8.45-6.18c2.74-2.74,6.57-7.21,9.65-13.6c3.35-6.94,4.44-13.26,4.83-17.31c-32.71,0-65.42,0-98.13,0
		l0.01,4.96C1003.72,656.73,1035.53,663.53,1035.53,671.88z"/>
	<path d="M866.6,667.55c4.05,10.26,11.64,15.54,14.48,17.31c2.37,2.12,5.55,4.45,9.65,6.18c4.28,1.81,7.9,2.28,9.65,2.47
		c14.33,1.57,57.79,1.26,62.75,1.24c0.29,0,0.61,0,0.92,0l-0.02-7.43c-0.9,0.01-1.8,0.01-2.71,0.01c-40.98,0-74.21-6.92-74.21-15.46
		s33.22-15.46,74.21-15.46c0.89,0,1.76,0.01,2.64,0.01l-0.01-4.96c-33.25,0-66.51,0-99.76,0
		C863.94,654.86,863.96,660.86,866.6,667.55z"/>
	<path class="st5" d="M1035.53,671.88c0-8.35-31.81-15.16-71.57-15.45l0.07,30.89C1003.76,687.03,1035.53,680.23,1035.53,671.88z"/>
	<path class="st5" d="M961.32,656.42c-40.98,0-74.21,6.92-74.21,15.46s33.22,15.46,74.21,15.46c0.91,0,1.81-0.01,2.71-0.01
		l-0.07-30.89C963.08,656.43,962.21,656.42,961.32,656.42z"/>
	<path class="st0" d="M877.46,512.96c0.86-11.9-4.94-21.67-10.86-27.21c-6.43-6.02-13.98-7.95-16.89-8.66
		c-4.52-1.1-8.44-1.19-10.86-1.24c-3.4-0.07-7.94-0.17-13.27,1.24c-7.96,2.1-13.23,6.37-14.48,7.42
		c-1.69,1.42-14.51,12.55-13.27,28.44c0.57,7.38,3.93,12.73,6.03,16.08c0.73,1.16,4.94,7.74,10.86,11.13
		c1.16,0.66,2.41,1.24,2.41,1.24c2.9,1.32,5.17,1.8,8.45,2.47c2.25,0.46,5.4,1.09,9.65,1.24c0,0,1.81,0.06,3.62,0
		c14.15-0.49,22.93-6.18,22.93-6.18C868.23,534.74,876.52,525.85,877.46,512.96z M844.28,530.28c-12.33,0-22.32-8.03-22.32-17.93
		c0-9.9,9.99-17.93,22.32-17.93c12.33,0,22.32,8.03,22.32,17.93C866.6,522.25,856.6,530.28,844.28,530.28z"/>
	<path class="st6" d="M1115.17,482.04c-6.43-6.02-13.98-7.95-16.89-8.66c-4.52-1.1-8.44-1.19-10.86-1.24
		c-3.4-0.07-7.94-0.17-13.27,1.24c-7.96,2.1-13.23,6.37-14.48,7.42c-1.69,1.42-14.51,12.55-13.27,28.44
		c0.57,7.38,3.93,12.73,6.03,16.08c0.73,1.16,4.94,7.74,10.86,11.13c1.16,0.66,2.41,1.24,2.41,1.24c2.9,1.32,5.17,1.8,8.45,2.47
		c2.25,0.46,5.4,1.09,9.65,1.24c0,0,1.81,0.06,3.62,0c14.15-0.49,22.93-6.18,22.93-6.18c6.46-4.19,14.75-13.09,15.69-25.97
		C1126.89,497.36,1121.08,487.58,1115.17,482.04z M1090.43,530.28c-12.33,0-22.32-8.03-22.32-17.93c0-9.9,9.99-17.93,22.32-17.93
		s22.32,8.03,22.32,17.93C1112.75,522.25,1102.76,530.28,1090.43,530.28z"/>
	<ellipse class="st7" cx="844.28" cy="512.34" rx="22.32" ry="17.93"/>
	<ellipse class="st7" cx="1090.43" cy="512.34" rx="22.32" ry="17.93"/>
	<path class="st8" d="M688.62,447.42c-5,0-9.05,4.15-9.05,9.28v84.1c0,5.12,4.05,9.28,9.05,9.28c5,0,9.05-4.15,9.05-9.28v-84.1
		C697.67,451.57,693.62,447.42,688.62,447.42z"/>
	<path class="st8" d="M1236.43,447.42c-5,0-9.05,4.15-9.05,9.28v84.1c0,5.12,4.05,9.28,9.05,9.28s9.05-4.15,9.05-9.28v-84.1
		C1245.48,451.57,1241.43,447.42,1236.43,447.42z"/>
	<path class="st9" d="M945.03,193.89c-1.41,0.48-6.35,2.28-12.07,7.42c-2.83,2.54-8.71,7.94-12.07,17.31
		c-0.88,2.46-2.54,7.84-2.41,14.84c0.08,4.15,0.89,14.97,8.45,24.73c8.12,10.5,19.94,14.48,20.51,13.6
		c0.44-0.68-6.15-3.94-12.07-12.37c-1.88-2.67-7.6-11.07-8.45-23.5c-0.22-3.2-0.86-14.84,6.03-25.97c1.39-2.24,5.53-8.94,13.27-13.6
		c2.88-1.74,6.22-3.17,6.03-3.71C952.08,192.09,948.21,192.8,945.03,193.89z"/>
</g>
</svg>
